<?xml version="1.0" encoding="UTF-8"?>
<svg version="1.1" xmlns="http://www.w3.org/2000/svg" width="512" height="512">
<path d="M0 0 C1.26416047 -0.00307895 1.26416047 -0.00307895 2.55385953 -0.0062201 C5.40275287 -0.01191412 8.25159823 -0.0104299 11.10049629 -0.00901413 C13.15367315 -0.01159638 15.2068495 -0.01460915 17.26002514 -0.01801753 C22.92158029 -0.02610708 28.58312278 -0.02787819 34.24468303 -0.028615 C40.34294588 -0.03046213 46.4412021 -0.03800769 52.53946114 -0.04475021 C66.57818126 -0.05905667 80.61689722 -0.06486159 94.65562289 -0.06944216 C101.5902437 -0.07177697 108.52486369 -0.07537946 115.45948386 -0.07913754 C139.18902728 -0.09197309 162.91857024 -0.10269286 186.64811707 -0.10614014 C188.13802336 -0.10636177 189.62792965 -0.10658355 191.11783595 -0.10680549 C192.61137383 -0.10702613 194.10491171 -0.10724661 195.59844959 -0.10746694 C198.59482884 -0.10790949 201.5912081 -0.10835661 204.58758736 -0.10880661 C205.33051656 -0.108916 206.07344577 -0.10902539 206.83888798 -0.1091381 C230.93780489 -0.11277013 255.03669175 -0.12869569 279.13559715 -0.15199697 C304.60390955 -0.17657741 330.07220476 -0.19031212 355.54052937 -0.19150805 C358.3347404 -0.19167951 361.12895143 -0.19189494 363.92316246 -0.19214249 C364.61119478 -0.19219826 365.29922711 -0.19225402 366.00810889 -0.19231148 C377.0933707 -0.19346341 388.17860172 -0.20449733 399.26385312 -0.21902954 C410.39956542 -0.23337583 421.53523868 -0.236389 432.67096125 -0.22858956 C438.70693457 -0.22467057 444.74280404 -0.22567339 450.77876472 -0.23964691 C456.29939604 -0.252311 461.81984466 -0.25125469 467.34047545 -0.2390562 C469.34248207 -0.23708615 471.34450129 -0.24023737 473.34649013 -0.24890056 C476.05890588 -0.25989908 478.77066605 -0.25257231 481.48306274 -0.24050903 C482.26803416 -0.24810423 483.05300558 -0.25569942 483.86176401 -0.26352477 C489.62358291 -0.20785546 492.8318139 1.09586915 496.86737251 5.13142776 C497.06615845 7.63040109 497.13875178 10.01879068 497.12464142 12.51910591 C497.12814749 13.29349036 497.13165357 14.06787481 497.13526589 14.86572546 C497.14464797 17.48804384 497.13963919 20.11014344 497.13479805 22.73247147 C497.13853089 24.62050723 497.14313093 26.50854145 497.1485287 28.39657319 C497.16081943 33.6062704 497.16049112 38.81590369 497.15813994 44.02561212 C497.1577333 49.63580467 497.16875625 55.2459763 497.17825508 60.85615921 C497.19489925 71.85557238 497.20036617 82.85496412 497.20147984 93.85438882 C497.20242869 102.79119142 497.2065308 111.72798693 497.21288109 120.66478729 C497.22763303 141.85512344 497.23992982 163.04545446 497.23888397 184.23579597 C497.23885281 184.91391307 497.23882166 185.59203016 497.23878956 186.29069626 C497.23862333 189.72790233 497.23842525 193.16510839 497.23822014 196.60231446 C497.2381603 197.6263298 497.2381603 197.6263298 497.23809926 198.67103233 C497.23801839 200.05157225 497.23793479 201.43211217 497.23784848 202.81265209 C497.23662275 224.29540255 497.25163803 245.7780899 497.27899361 267.2608223 C497.30969392 291.38033096 497.32690199 315.49978732 497.32506716 339.61932099 C497.32440197 352.3962116 497.3299508 365.17303104 497.35142326 377.9499054 C497.36958582 388.8273729 497.37402308 399.70473697 497.36040442 410.58221303 C497.35384982 416.13607568 497.35384696 421.68973963 497.37111092 427.24358368 C497.38673712 432.32262965 497.38408589 437.40131765 497.36654265 442.48035432 C497.36344955 444.32288536 497.36719106 446.16544242 497.3782628 448.00794278 C497.39226945 450.50309122 497.38188921 452.996964 497.36515045 455.49206734 C497.37508681 456.2157778 497.38502317 456.93948826 497.39526063 457.68512934 C497.34711669 461.05453735 497.09404745 462.83450456 495.02376139 465.54638779 C490.84508086 468.61790042 486.69654666 468.27397403 481.73474503 468.26285553 C480.89197138 468.26490816 480.04919773 468.2669608 479.18088549 468.26907563 C476.33199215 468.27476965 473.48314679 468.27328543 470.63424873 468.27186966 C468.58107188 468.27445191 466.52789553 468.27746468 464.47471988 468.28087306 C458.81316473 468.28896261 453.15162224 468.29073372 447.490062 468.29147053 C441.39179915 468.29331766 435.29354293 468.30086322 429.19528389 468.30760574 C415.15656376 468.3219122 401.11784781 468.32771712 387.07912214 468.33229769 C380.14450132 468.3346325 373.20988134 468.33823499 366.27526117 468.34199307 C342.54571774 468.35482862 318.81617478 468.36554838 295.08662796 468.36899567 C293.59672167 468.3692173 292.10681537 468.36943908 290.61690908 468.36966102 C289.1233712 468.36988166 287.62983332 468.37010214 286.13629544 468.37032247 C283.13991618 468.37076502 280.14353692 468.37121214 277.14715767 468.37166214 C276.40422846 468.37177153 275.66129926 468.37188092 274.89585704 468.37199363 C250.79694013 468.37562566 226.69805328 468.39155122 202.59914788 468.4148525 C177.13083548 468.43943294 151.66254027 468.45316765 126.19421566 468.45436358 C123.40000462 468.45453504 120.60579359 468.45475047 117.81158257 468.45499802 C117.12355024 468.45505379 116.43551792 468.45510955 115.72663613 468.45516701 C104.64137433 468.45631894 93.55614331 468.46735286 82.47089191 468.48188507 C71.33517961 468.49623136 60.19950635 468.49924453 49.06378378 468.49144509 C43.02781045 468.4875261 36.99194099 468.48852891 30.9559803 468.50250244 C25.43534898 468.51516653 19.91490037 468.51411022 14.39426957 468.50191173 C12.39226296 468.49994168 10.39024373 468.5030929 8.3882549 468.51175609 C5.67583915 468.52275461 2.96407898 468.51542784 0.25168228 468.50336456 C-0.53328914 468.51095976 -1.31826056 468.51855495 -2.12701899 468.5263803 C-7.88883788 468.47071099 -11.09706887 467.16698638 -15.13262749 463.13142776 C-15.33141342 460.63245444 -15.40400676 458.24406485 -15.38989639 455.74374962 C-15.39340247 454.96936517 -15.39690854 454.19498072 -15.40052086 453.39713007 C-15.40990294 450.77481169 -15.40489417 448.15271209 -15.40005302 445.53038406 C-15.40378587 443.6423483 -15.40838591 441.75431408 -15.41378367 439.86628234 C-15.4260744 434.65658513 -15.4257461 429.44695184 -15.42339492 424.23724341 C-15.42298828 418.62705086 -15.43401122 413.01687923 -15.44351006 407.40669632 C-15.46015423 396.40728315 -15.46562114 385.40789141 -15.46673481 374.40846671 C-15.46768366 365.47166411 -15.47178577 356.5348686 -15.47813606 347.59806824 C-15.49288801 326.40773209 -15.50518479 305.21740107 -15.50413895 284.02705956 C-15.50410779 283.34894246 -15.50407663 282.67082537 -15.50404453 281.97215927 C-15.50387831 278.5349532 -15.50368022 275.09774714 -15.50347511 271.66054107 C-15.50341528 270.63652573 -15.50341528 270.63652573 -15.50335423 269.5918232 C-15.50327336 268.21128328 -15.50318976 266.83074336 -15.50310345 265.45020344 C-15.50187772 243.96745298 -15.516893 222.48476563 -15.54424858 201.00203323 C-15.57494889 176.88252457 -15.59215696 152.76306821 -15.59032214 128.64353454 C-15.58965694 115.86664393 -15.59520577 103.08982449 -15.61667824 90.31295013 C-15.6348408 79.43548263 -15.63927805 68.55811856 -15.62565939 57.6806425 C-15.61910479 52.12677985 -15.61910194 46.5731159 -15.63636589 41.01927185 C-15.65199209 35.94022588 -15.64934086 30.86153788 -15.63179763 25.78250121 C-15.62870452 23.93997017 -15.63244604 22.09741311 -15.64351778 20.25491275 C-15.65752442 17.75976431 -15.64714418 15.26589153 -15.63040543 12.77078819 C-15.64034179 12.04707773 -15.65027815 11.32336727 -15.66051561 10.57772619 C-15.61237166 7.20831818 -15.35930243 5.42835097 -13.28901637 2.71646774 C-9.11033584 -0.35504489 -4.96180164 -0.0111185 0 0 Z " fill="#4FBA6F" transform="translate(15.132627487182617,21.868572235107422)"/>
<path d="M0 0 C0.67775956 -0.00297112 1.35551912 -0.00594224 2.05381685 -0.0090034 C4.32377802 -0.01767173 6.59368632 -0.01919705 8.86366272 -0.02069092 C10.49158846 -0.02532031 12.11951312 -0.03034513 13.74743652 -0.03573608 C18.16888156 -0.04884794 22.59031143 -0.05530233 27.01177287 -0.05974674 C29.77373569 -0.06267861 32.53569437 -0.06678357 35.29765511 -0.07125092 C43.93833743 -0.08492084 52.57901028 -0.09459073 61.21970266 -0.09845281 C71.1963116 -0.10293653 81.17278373 -0.12050107 91.14935106 -0.1494534 C98.86070154 -0.17105608 106.57201349 -0.18115628 114.28339392 -0.18249393 C118.88955385 -0.1835427 123.49558509 -0.18946625 128.10171318 -0.20731354 C132.43308439 -0.22377044 136.76422981 -0.22596138 141.09562111 -0.21717453 C142.6851245 -0.21640295 144.27463992 -0.22076276 145.86411285 -0.23063278 C148.03443425 -0.24331938 150.20395192 -0.2374942 152.37426758 -0.22705078 C153.58860442 -0.22851734 154.80294127 -0.2299839 156.05407619 -0.2314949 C160.53950957 0.29041091 163.10215121 1.9919675 166.25062561 5.14044189 C166.44941155 7.63941522 166.52200488 10.02780481 166.50789452 12.52812004 C166.51140059 13.30250449 166.51490667 14.07688894 166.51851898 14.87473959 C166.52790106 17.49705797 166.52289229 20.11915757 166.51805115 22.7414856 C166.52178399 24.62952136 166.52638403 26.51755558 166.53178179 28.40558732 C166.54407253 33.61528453 166.54374422 38.82491782 166.54139304 44.03462625 C166.5409864 49.6448188 166.55200934 55.25499043 166.56150818 60.86517334 C166.57815235 71.86458651 166.58361926 82.86397825 166.58473293 93.86340295 C166.58568179 102.80020555 166.58978389 111.73700106 166.59613419 120.67380142 C166.61088613 141.86413757 166.62318292 163.05446859 166.62213707 184.2448101 C166.62209033 185.26198574 166.62209033 185.26198574 166.62204265 186.29971039 C166.62187643 189.73691645 166.62167835 193.17412252 166.62147324 196.61132859 C166.62143335 197.29400548 166.62139346 197.97668238 166.62135236 198.68004646 C166.62127148 200.06058638 166.62118789 201.4411263 166.62110157 202.82166622 C166.61987585 224.30441668 166.63489113 245.78710403 166.6622467 267.26983643 C166.69294702 291.38934509 166.71015509 315.50880145 166.70832026 339.62833512 C166.70765506 352.40522573 166.71320389 365.18204517 166.73467636 377.95891953 C166.75283892 388.83638703 166.75727618 399.7137511 166.74365751 410.59122716 C166.73710292 416.1450898 166.73710006 421.69875376 166.75436401 427.25259781 C166.76999022 432.33164377 166.76733898 437.41033178 166.74979575 442.48936845 C166.74670265 444.33189948 166.75044416 446.17445655 166.7615159 448.01695691 C166.77552255 450.51210535 166.76514231 453.00597812 166.74840355 455.50108147 C166.75833991 456.22479193 166.76827627 456.94850239 166.77851373 457.69414347 C166.73036979 461.06355148 166.47730055 462.84351869 164.40701449 465.55540192 C160.55449207 468.3871741 157.28089592 468.26948375 152.63496399 468.28088379 C151.62172298 468.28534047 151.62172298 468.28534047 150.58801246 468.28988719 C148.31961321 468.29857377 146.05126674 468.30008241 143.78285217 468.30157471 C142.15831896 468.30620296 140.53378684 468.31122763 138.90925598 468.31661987 C134.49174955 468.32974628 130.07425831 468.33618944 125.65673542 468.34063053 C122.896605 468.34356121 120.13647873 468.34766604 117.3763504 468.3521347 C108.73993202 468.36581102 100.10352313 468.3754767 91.46709466 468.3793366 C81.49898565 468.38381613 71.53101385 468.40135859 61.56294656 468.43033719 C53.85752972 468.45195989 46.15215147 468.46204121 38.44670463 468.46337771 C33.84493725 468.46442543 29.24329884 468.47032603 24.64156342 468.48819733 C20.31102006 468.50468791 15.98070244 468.50682874 11.65013885 468.49805832 C10.06308894 468.49728844 8.47602684 468.5016242 6.88900757 468.51151657 C4.71714506 468.52425744 2.54607951 468.51834839 0.3742218 468.50793457 C-0.83957027 468.50940113 -2.05336235 468.51086769 -3.303936 468.51237869 C-7.45194826 468.06459869 -10.05645063 467.07359384 -13.74937439 465.14044189 C-16.1703486 461.50898058 -16.03165431 458.85932307 -16.00943661 454.66374397 C-16.01324228 453.89188202 -16.01704795 453.12002007 -16.02096894 452.32476836 C-16.03134286 449.71704567 -16.02736794 447.10953832 -16.02352905 444.50180054 C-16.02797831 442.62186369 -16.03329132 440.74192872 -16.03939778 438.86199653 C-16.05362558 433.67929564 -16.05524017 428.49665458 -16.05480087 423.31393695 C-16.05644486 417.7310071 -16.06950345 412.1481022 -16.08099365 406.56518555 C-16.10387446 394.35054135 -16.11176743 382.13591449 -16.1168201 369.92125177 C-16.12007325 362.29933443 -16.12659336 354.67742215 -16.13382149 347.05550766 C-16.15339068 325.96635929 -16.16987456 304.87721492 -16.17269802 283.78805733 C-16.17279208 283.11329719 -16.17288614 282.43853705 -16.17298305 281.74332964 C-16.17336154 279.00872395 -16.17372554 276.27411826 -16.17408603 273.53951258 C-16.17435775 271.48119605 -16.17463443 269.42287952 -16.1749115 267.36456299 C-16.17499952 266.68441717 -16.17508754 266.00427136 -16.17517823 265.30351507 C-16.17808434 243.92799038 -16.20018518 222.55255609 -16.23643494 201.17706299 C-16.27713943 177.17399978 -16.30083682 153.17100729 -16.30115753 129.16790092 C-16.30174311 116.45413096 -16.31029997 103.74047732 -16.3391552 91.02673721 C-16.36360708 80.20310673 -16.37099391 69.379635 -16.35590767 58.55598439 C-16.34871361 53.03030085 -16.3497034 47.50493119 -16.37231827 41.97928238 C-16.39280712 36.92483073 -16.39040287 31.87093629 -16.36944342 26.81649135 C-16.36592912 24.984064 -16.37093989 23.15159727 -16.38514786 21.31922163 C-16.40317433 18.83507146 -16.39061876 16.35290993 -16.37020016 13.8688221 C-16.38276353 13.15123319 -16.3953269 12.43364428 -16.40827098 11.69431025 C-16.339416 7.802291 -15.84235725 6.253098 -13.32873929 3.20765078 C-8.96644185 -0.28847341 -5.50041461 0.01347811 0 0 Z " fill="#5C9CED" transform="translate(345.74937438964844,21.85955810546875)"/>
<path d="M0 0 C0.67720384 -0.00085442 1.35440768 -0.00170885 2.05213284 -0.00258917 C4.31995879 -0.0042355 6.58771066 0.00126354 8.85552979 0.00672913 C10.48171487 0.00701121 12.10790008 0.00685286 13.73408508 0.00628662 C18.14900781 0.00599946 22.56390343 0.0118831 26.97881985 0.01886058 C31.59260865 0.0251076 36.20639805 0.02569899 40.82019043 0.02688599 C49.55718235 0.02999531 58.29416178 0.03820335 67.0311482 0.04823548 C76.97784565 0.05940896 86.9245437 0.06491018 96.87124586 0.06993091 C117.3324855 0.08038628 137.79371389 0.09797804 158.25494385 0.12025452 C157.67744385 0.36775452 157.09994385 0.61525452 156.50494385 0.87025452 C153.77750647 2.3854975 152.20007941 3.65438374 150.25494385 6.12025452 C149.8627395 8.79239062 149.71684469 11.05249167 149.75157928 13.72279358 C149.74576552 14.49610897 149.73995176 15.26942436 149.73396182 16.06617355 C149.71929401 18.67305471 149.7332782 21.27900428 149.74700928 23.88587952 C149.74240303 25.76739485 149.73605199 27.6489066 149.7281003 29.53041077 C149.71134584 34.71286587 149.71968107 39.89502773 149.73204517 45.07748413 C149.74106838 50.6617485 149.72713953 56.24596123 149.71612549 61.83021545 C149.69830645 72.774575 149.70219532 83.71882504 149.71377605 94.66318893 C149.7227968 103.55513663 149.72404027 112.44705356 149.71968079 121.33900452 C149.71876139 123.23480633 149.71876139 123.23480633 149.71782342 125.16890717 C149.71654456 127.73615011 149.71524771 130.30339306 149.71393305 132.87063599 C149.70284298 156.27614914 149.71435846 179.68159192 149.73530344 203.08709145 C149.7542865 224.46276118 149.75258801 245.83833561 149.73345947 267.21400452 C149.71205034 291.21853661 149.70361606 315.22300912 149.71590853 339.22755432 C149.71718277 341.78553771 149.71844025 344.34352111 149.71968079 346.90150452 C149.72029789 348.160196 149.72091499 349.41888748 149.72155079 350.71572113 C149.72500955 359.60057858 149.71916404 368.48540229 149.70976257 377.37025452 C149.69856287 388.19278836 149.70153987 399.01520611 149.72288555 409.83772659 C149.73342329 415.36324201 149.73747149 420.88856362 149.72428894 426.41407776 C149.71241553 431.46715179 149.71884379 436.51985142 149.74019915 441.57289124 C149.74468673 443.40593595 149.74235101 445.23901196 149.732696 447.07203674 C149.72061854 449.55438615 149.73291757 452.0354352 149.75157928 454.51771545 C149.74221462 455.23764553 149.73284996 455.95757561 149.72320151 456.69932175 C149.77450854 460.08903665 150.01798023 461.819853 152.14577913 464.51728821 C154.12194626 466.01917628 155.97698834 467.14398787 158.25494385 468.12025452 C136.71487985 468.1903336 115.17483466 468.24323732 93.63467979 468.27569103 C83.63322514 468.29116033 73.63184132 468.31225109 63.63043213 468.34657288 C54.9132694 468.37647326 46.19615796 468.39582906 37.47894537 468.40252 C32.86318145 468.40643117 28.24756428 468.41562431 23.63184738 468.43744469 C19.28658682 468.45781991 14.94153335 468.46408622 10.59622955 468.45957756 C9.00230661 468.4604023 7.40837669 468.46636183 5.81449509 468.47787094 C3.63556774 468.49283166 1.45741885 468.48919562 -0.7215271 468.48101807 C-1.94013742 468.48378345 -3.15874775 468.48654882 -4.41428566 468.489398 C-8.18894409 468.07105919 -10.55653642 467.17087079 -13.74505615 465.12025452 C-16.26597357 461.54350005 -16.02753253 457.7440081 -16.00511837 453.53612614 C-16.00892404 452.76479872 -16.01272971 451.99347129 -16.01665071 451.19877031 C-16.02700554 448.59888714 -16.02305319 445.99922071 -16.01921082 443.39932251 C-16.02366109 441.52264741 -16.02897444 439.64597419 -16.03507954 437.76930374 C-16.04929488 432.60026371 -16.05092216 427.43128371 -16.05048263 422.26222694 C-16.05212769 416.69226637 -16.06518824 411.12233077 -16.07667542 405.55238342 C-16.09954705 393.36878919 -16.10744808 381.18521234 -16.11250186 369.00159955 C-16.11575582 361.3986054 -16.12227639 353.79561633 -16.12950325 346.19262505 C-16.14907058 325.15404844 -16.16555578 304.11547584 -16.16837978 283.07688999 C-16.16847384 282.40387873 -16.16856791 281.73086747 -16.16866482 281.03746192 C-16.1690433 278.30997318 -16.1694073 275.58248443 -16.1697678 272.85499568 C-16.17003952 270.80205787 -16.1703162 268.74912006 -16.17059326 266.69618225 C-16.17068128 266.01781417 -16.17076931 265.33944608 -16.17086 264.64052139 C-16.17376642 243.31853947 -16.19587107 221.99664814 -16.2321167 200.67469788 C-16.27282108 176.72912613 -16.29651858 152.78362526 -16.2968393 128.83801025 C-16.29742485 116.1555542 -16.30598017 103.47321477 -16.33483696 90.79078865 C-16.35928847 79.99463064 -16.36667586 69.19863179 -16.35158943 58.40245361 C-16.34439544 52.89093968 -16.3453849 47.37974045 -16.36800003 41.86826134 C-16.38848903 36.82680207 -16.38608451 31.78590144 -16.36512519 26.74444889 C-16.36161093 24.91676203 -16.36662145 23.08903567 -16.38082962 21.26140065 C-16.39885652 18.78365638 -16.38630026 16.30790581 -16.36588192 13.83022404 C-16.37844529 13.11452532 -16.39100867 12.3988266 -16.40395275 11.66144004 C-16.33499992 7.77380621 -15.83592017 6.23029808 -13.32443792 3.18869293 C-8.95826165 -0.31259828 -5.50603566 -0.00418392 0 0 Z " fill="#FEC107" transform="translate(180.74505615234375,21.879745483398438)"/>
<path d="M0 0 C0.67775956 -0.00297112 1.35551912 -0.00594224 2.05381685 -0.0090034 C4.32377802 -0.01767173 6.59368632 -0.01919705 8.86366272 -0.02069092 C10.49158846 -0.02532031 12.11951312 -0.03034513 13.74743652 -0.03573608 C18.16888156 -0.04884794 22.59031143 -0.05530233 27.01177287 -0.05974674 C29.77373569 -0.06267861 32.53569437 -0.06678357 35.29765511 -0.07125092 C43.93833743 -0.08492084 52.57901028 -0.09459073 61.21970266 -0.09845281 C71.1963116 -0.10293653 81.17278373 -0.12050107 91.14935106 -0.1494534 C98.86070154 -0.17105608 106.57201349 -0.18115628 114.28339392 -0.18249393 C118.88955385 -0.1835427 123.49558509 -0.18946625 128.10171318 -0.20731354 C132.43308439 -0.22377044 136.76422981 -0.22596138 141.09562111 -0.21717453 C142.6851245 -0.21640295 144.27463992 -0.22076276 145.86411285 -0.23063278 C148.03443425 -0.24331938 150.20395192 -0.2374942 152.37426758 -0.22705078 C153.58860442 -0.22851734 154.80294127 -0.2299839 156.05407619 -0.2314949 C160.53950957 0.29041091 163.10215121 1.9919675 166.25062561 5.14044189 C166.51132202 7.92884827 166.51132202 7.92884827 166.52528381 11.53033447 C166.53039474 12.18583786 166.53550568 12.84134125 166.54077148 13.51670837 C166.55470142 15.68955553 166.55370772 17.86208656 166.55140686 20.03497314 C166.55529301 21.54471454 166.55962751 23.05445485 166.56439209 24.56419373 C166.57186238 27.7326308 166.57155801 30.90095648 166.56629944 34.06939697 C166.56051512 38.12481337 166.57740632 42.17977152 166.60064411 46.23511219 C166.61539873 49.35528723 166.61625062 52.47535251 166.61313438 55.59555626 C166.61364711 57.0902465 166.61887573 58.58494297 166.6289463 60.07959938 C166.64132223 62.17415418 166.63451229 64.26782443 166.62294006 66.36236572 C166.62356949 67.55324295 166.62419891 68.74412018 166.62484741 69.97108459 C166.21282074 73.46061872 165.3437552 75.3453818 163.25062561 78.14044189 C160.33460866 79.59845037 157.77210623 79.27993366 154.51397705 79.29434204 C153.46314901 79.30091542 153.46314901 79.30091542 152.39109212 79.3076216 C150.03201143 79.32102906 147.6729681 79.32719278 145.31385803 79.33331299 C143.62711416 79.34121237 141.94037198 79.34948122 140.25363159 79.35809326 C134.70446898 79.38433052 129.15529874 79.39962177 123.60609436 79.41387939 C121.69748237 79.41923822 119.78887044 79.42461572 117.88025856 79.43001175 C109.94263838 79.45164224 102.00502025 79.47038005 94.06737804 79.48163414 C82.68261303 79.49788054 71.29818894 79.53107309 59.91355246 79.58803499 C51.91350011 79.62670123 43.91353907 79.64626285 35.9133957 79.6515547 C31.1327237 79.65521249 26.35241516 79.667279 21.5718441 79.69965744 C17.07460267 79.72968014 12.57794573 79.7360708 8.08062553 79.72427368 C6.42983067 79.72405246 4.77900914 79.73239738 3.12830734 79.74992752 C0.87424006 79.77256272 -1.37769755 79.7643534 -3.6317749 79.7484436 C-5.52354572 79.75340882 -5.52354572 79.75340882 -7.45353413 79.75847435 C-11.65557604 78.97051193 -13.1358601 77.45759122 -15.74937439 74.14044189 C-16.3842926 70.99127197 -16.3842926 70.99127197 -16.39634705 67.40997314 C-16.40510864 66.75403168 -16.41387024 66.09809021 -16.42289734 65.42227173 C-16.44481199 63.2651452 -16.4303705 61.11008734 -16.41343689 58.95294189 C-16.4168074 57.44748544 -16.42166198 55.94203164 -16.42793274 54.43658447 C-16.43529318 51.28584817 -16.42462657 48.13582201 -16.40122986 44.98516846 C-16.37274103 40.95298234 -16.38914967 36.92246019 -16.41909218 32.89033508 C-16.43718849 29.78293391 -16.43139678 26.67592516 -16.41845322 23.56851196 C-16.41512557 22.08220216 -16.41918377 20.59585636 -16.43085098 19.10958862 C-16.44360013 17.02907416 -16.42413442 14.95122709 -16.39634705 12.87091064 C-16.39236908 11.68908203 -16.38839111 10.50725342 -16.3842926 9.28961182 C-15.55700766 5.18631032 -13.99592361 3.70676141 -10.74937439 1.14044189 C-7.21965705 -0.12214354 -3.71866188 0.00911213 0 0 Z " fill="#3E80D6" transform="translate(345.74937438964844,21.85955810546875)"/>
<path d="M0 0 C0.67720384 -0.00085442 1.35440768 -0.00170885 2.05213284 -0.00258917 C4.31995879 -0.0042355 6.58771066 0.00126354 8.85552979 0.00672913 C10.48171487 0.00701121 12.10790008 0.00685286 13.73408508 0.00628662 C18.14900781 0.00599946 22.56390343 0.0118831 26.97881985 0.01886058 C31.59260865 0.0251076 36.20639805 0.02569899 40.82019043 0.02688599 C49.55718235 0.02999531 58.29416178 0.03820335 67.0311482 0.04823548 C76.97784565 0.05940896 86.9245437 0.06491018 96.87124586 0.06993091 C117.3324855 0.08038628 137.79371389 0.09797804 158.25494385 0.12025452 C157.67744385 0.36775452 157.09994385 0.61525452 156.50494385 0.87025452 C153.77832294 2.38504391 152.20019749 3.65588599 150.25494385 6.12025452 C149.86135969 8.78571919 149.71409528 11.0388798 149.74713516 13.70273209 C149.74083141 14.47386912 149.73452766 15.24500615 149.72803289 16.03951097 C149.7116927 18.63892983 149.72396471 21.23743678 149.73596191 23.83686829 C149.73008996 25.71298598 149.72246465 27.58909888 149.71323085 29.46520305 C149.6928991 34.632564 149.69754312 39.79965154 149.70613837 44.96703434 C149.71106844 50.53487336 149.69301674 56.1026424 149.67771912 61.67045593 C149.65436692 71.32102794 149.64566034 80.97152473 149.6468277 90.62212372 C149.64849445 104.57534895 149.62818755 118.52847367 149.60247239 132.48167214 C149.56135271 155.11835883 149.53803444 177.75502272 149.52593994 200.39173889 C149.51414713 222.38459503 149.49398035 244.37741741 149.46246338 266.37025452 C149.46101145 267.38691744 149.46101145 267.38691744 149.45953019 268.424119 C149.44980048 275.23054431 149.43990037 282.03696937 149.42987543 288.84339426 C149.3458022 345.93566442 149.29048555 403.02793479 149.25494385 460.12025452 C148.92494385 460.12025452 148.59494385 460.12025452 148.25494385 460.12025452 C148.25494385 334.39025452 148.25494385 208.66025452 148.25494385 79.12025452 C95.78494385 79.12025452 43.31494385 79.12025452 -10.74505615 79.12025452 C-16.37148296 73.49382771 -16.37148296 73.49382771 -16.39202881 67.38978577 C-16.40079041 66.7338443 -16.409552 66.07790283 -16.4185791 65.40208435 C-16.44049375 63.24495782 -16.42605226 61.08989996 -16.40911865 58.93275452 C-16.41248916 57.42729806 -16.41734374 55.92184426 -16.4236145 54.41639709 C-16.43097494 51.26566079 -16.42030833 48.11563463 -16.39691162 44.96498108 C-16.3684228 40.93279496 -16.38483144 36.90227281 -16.41477394 32.87014771 C-16.43287025 29.76274654 -16.42707854 26.65573779 -16.41413498 23.54832458 C-16.41080734 22.06201478 -16.41486553 20.57566898 -16.42653275 19.08940125 C-16.43928189 17.00888678 -16.41981619 14.93103972 -16.39202881 12.85072327 C-16.38805084 11.66889465 -16.38407288 10.48706604 -16.37997437 9.26942444 C-15.55268942 5.16612294 -13.99160538 3.68657403 -10.74505615 1.12025452 C-7.21414381 -0.14511228 -3.72022147 -0.00282692 0 0 Z " fill="#FDAE08" transform="translate(180.74505615234375,21.879745483398438)"/>
<path d="M0 0 C0.68451652 -0.00085442 1.36903304 -0.00170885 2.07429248 -0.00258917 C4.37286307 -0.00423908 6.67136103 0.00126942 8.96992493 0.00672913 C10.61566669 0.00701113 12.26140858 0.00685301 13.90715027 0.00628662 C18.37998144 0.00599916 22.85278592 0.01188766 27.32561088 0.01886058 C31.99812927 0.0251026 36.67064825 0.02569859 41.34317017 0.02688599 C50.1935264 0.02999679 59.04387032 0.03820682 67.89422113 0.04823548 C77.9690671 0.05940438 88.04391366 0.06490903 98.11876428 0.06993091 C118.84560661 0.08038962 139.57243785 0.09798424 160.29927063 0.12025452 C159.72177063 0.36775452 159.14427063 0.61525452 158.54927063 0.87025452 C155.83939921 2.37573864 154.1977853 3.64915234 152.29927063 6.12025452 C151.68157123 9.46609762 151.68157123 9.46609762 151.75337219 13.27552795 C151.73786568 14.34442009 151.73786568 14.34442009 151.7220459 15.43490601 C151.69261714 17.78337781 151.6911188 20.13098782 151.68989563 22.47962952 C151.67491392 24.11060734 151.65818679 25.74156999 151.63978577 27.37251282 C151.59609849 31.65999549 151.57611025 35.94727351 151.56105042 40.23493958 C151.54148419 44.61219898 151.49951368 48.9892372 151.45942688 53.36634827 C151.3841099 61.95092583 151.33382763 70.53541658 151.29927063 79.12025452 C130.50698821 79.21364444 109.71474031 79.28420751 88.9222908 79.3275032 C79.26825708 79.34813937 69.61435359 79.37628009 59.96040344 79.42201233 C51.5472339 79.46184785 43.13415866 79.48767966 34.72089744 79.4966085 C30.26499241 79.50182883 25.80935717 79.51412026 21.35353851 79.54317474 C17.16090245 79.57029205 12.96864774 79.57870705 8.77593231 79.57268524 C7.23598662 79.57378714 5.69602839 79.58176318 4.15615845 79.59707642 C2.05513766 79.61694797 -0.0444391 79.61220578 -2.14549255 79.60127258 C-3.90980433 79.60680334 -3.90980433 79.60680334 -5.70975876 79.61244583 C-9.32622786 79.01732307 -10.46224291 77.95755681 -12.70072937 75.12025452 C-14.11737269 72.28696787 -13.85155524 69.88274938 -13.87773132 66.7144928 C-13.88430252 66.05738312 -13.89087372 65.40027344 -13.89764404 64.72325134 C-13.91737719 62.54568877 -13.9290389 60.36819513 -13.93901062 58.19056702 C-13.94308615 57.44717953 -13.94716167 56.70379204 -13.9513607 55.93787766 C-13.97222044 52.00404386 -13.98652315 48.07024495 -13.99589539 44.1363678 C-14.00696631 40.07181619 -14.0413736 36.00781109 -14.08106709 31.94345284 C-14.10720082 28.81904578 -14.11558423 25.69476966 -14.11917686 22.57026291 C-14.12405044 21.07192667 -14.13568646 19.57359657 -14.15421486 18.07536697 C-14.17854175 15.97807112 -14.1776544 13.88219879 -14.17070007 11.7848053 C-14.17656631 10.59170746 -14.18243256 9.39860962 -14.18847656 8.1693573 C-13.60022708 4.49197453 -12.62656581 3.35173878 -9.70072937 1.12025452 C-6.26246182 -0.02583467 -3.6277364 -0.00272148 0 0 Z " fill="#3BA35A" transform="translate(13.700729370117188,21.879745483398438)"/>
<path d="M0 0 C1.34879494 -0.00744736 1.34879494 -0.00744736 2.72483826 -0.01504517 C5.71467847 -0.02971021 8.70446559 -0.03647682 11.69433594 -0.04199219 C13.76601158 -0.04774111 15.8376872 -0.05349887 17.90936279 -0.05926514 C22.26070403 -0.0697882 26.61202672 -0.07562197 30.96337891 -0.07910156 C36.5399542 -0.08458183 42.11628476 -0.10859444 47.69278336 -0.13707352 C51.97530837 -0.15569792 56.25777451 -0.16090545 60.54033661 -0.16243744 C62.59603968 -0.16546613 64.65174166 -0.17350194 66.70740509 -0.18662262 C69.58507356 -0.203675 72.46214527 -0.2018045 75.33984375 -0.1953125 C76.18991501 -0.20452728 77.03998627 -0.21374207 77.91581726 -0.22323608 C82.54692282 -0.19050366 85.73204023 0.05613125 89.42871094 3.16113281 C92.32958931 6.83050834 91.72407269 11.50381968 91.71923828 15.96533203 C91.72595551 16.85360687 91.73267273 17.74188171 91.73959351 18.65707397 C91.75859052 21.59337967 91.76249856 24.52945699 91.76464844 27.46582031 C91.77107514 29.50839329 91.77780341 31.55096534 91.78482056 33.59353638 C91.79679756 37.8756931 91.80050094 42.15776912 91.79931641 46.43994141 C91.79911319 51.92339516 91.82641669 57.40633082 91.86086082 62.88966179 C91.88311304 67.10875825 91.88715446 71.32772968 91.88609695 75.54687881 C91.88845539 77.56826691 91.89729251 79.58965833 91.91276169 81.61098862 C91.93238761 84.44040824 91.92659693 87.26870632 91.91455078 90.09814453 C91.92578979 90.93055664 91.93702881 91.76296875 91.9486084 92.62060547 C91.89156364 97.9012518 91.01001189 101.01713924 87.42871094 105.16113281 C83.49442029 106.47256303 79.73263929 106.32517249 75.63037109 106.33813477 C74.73088242 106.34470596 73.83139374 106.35127716 72.90464783 106.35804749 C69.92568887 106.37777139 66.94678024 106.3894398 63.96777344 106.39941406 C62.95073711 106.40348959 61.93370079 106.40756512 60.88584518 106.41176414 C55.50495354 106.43261894 50.12408737 106.4469244 44.74316406 106.45629883 C39.18226739 106.46737449 33.62176964 106.50178955 28.06101418 106.54147053 C23.78707121 106.5675942 19.51322401 106.57598679 15.23920822 106.57958031 C13.18907343 106.58445563 11.13894318 106.59609642 9.08888626 106.6146183 C6.22088045 106.63892381 3.35391676 106.63806064 0.48583984 106.63110352 C-0.36108932 106.64391357 -1.20801849 106.65672363 -2.08061218 106.66992188 C-6.11259466 106.63425892 -8.08737064 106.46795473 -11.57485962 104.25675964 C-15.31613451 100.32959053 -14.73871391 96.54505606 -14.76416016 91.38452148 C-14.77233765 90.47542526 -14.78051514 89.56632904 -14.78894043 88.62968445 C-14.81380985 85.61283024 -14.83031388 82.59602311 -14.84472656 79.57910156 C-14.85005024 78.5501156 -14.85537392 77.52112965 -14.86085892 76.4609623 C-14.88759647 71.0152422 -14.90696996 65.56954509 -14.92138672 60.1237793 C-14.93804143 54.49438413 -14.98282466 48.86557361 -15.03375816 43.23639965 C-15.06738648 38.911843 -15.0789593 34.58742591 -15.0846138 30.26275063 C-15.09133784 28.18747804 -15.10658968 26.112215 -15.13050461 24.03706932 C-15.16206575 21.13286831 -15.16220652 18.23025468 -15.15478516 15.32592773 C-15.17119049 14.46807678 -15.18759583 13.61022583 -15.20449829 12.72637939 C-15.15819386 8.30153101 -15.0097935 6.69470054 -12.09732056 3.15083313 C-11.26373016 2.49423203 -10.43013977 1.83763092 -9.57128906 1.16113281 C-7.48023196 -0.92992429 -2.88581047 0.00375909 0 0 Z " fill="#F3F3F4" transform="translate(382.5712890625,154.8388671875)"/>
<path d="M0 0 C1.39356216 -0.01555183 1.39356216 -0.01555183 2.8152771 -0.03141785 C5.8812091 -0.05848591 8.94571055 -0.04882705 12.01171875 -0.03637695 C14.14494221 -0.04228547 16.27816235 -0.04953201 18.41137695 -0.05805969 C22.88022144 -0.06993986 27.34856785 -0.06323175 31.81738281 -0.04394531 C37.5444935 -0.02105315 43.27012115 -0.04784225 48.99708557 -0.08900738 C53.40151049 -0.11457992 57.80558027 -0.11200701 62.21005249 -0.10111427 C64.32157742 -0.09962713 66.4331295 -0.10732278 68.54458618 -0.12436485 C71.49678575 -0.14432544 74.44635913 -0.12596069 77.3984375 -0.09765625 C78.27027679 -0.11137268 79.14211609 -0.12508911 80.04037476 -0.13922119 C84.47492111 -0.05423397 86.200999 0.25643803 89.74206543 3.14492798 C92.45138389 7.1080357 92.38894104 11.04386131 92.31445312 15.70996094 C92.32000214 16.60013412 92.32555115 17.49030731 92.33126831 18.40745544 C92.34304087 21.33819076 92.31881559 24.26737181 92.29296875 27.19799805 C92.29125708 29.2401065 92.2913239 31.28221715 92.29309082 33.32432556 C92.29143899 37.59891857 92.27276422 41.87298625 92.24121094 46.14746094 C92.20150889 51.62420625 92.19716952 57.10026457 92.20467377 62.5771265 C92.20774422 66.79192895 92.1956206 71.0065772 92.17854309 75.22134209 C92.17151687 77.24073761 92.1683881 79.26015061 92.16923523 81.27955818 C92.16743597 84.1017322 92.14604378 86.92308528 92.11914062 89.74511719 C92.12207123 90.57798248 92.12500183 91.41084778 92.12802124 92.26895142 C92.06065168 96.85316016 91.75501207 99.99742084 88.69921875 103.6628418 C85.94345676 105.31278247 83.8799369 105.91588082 80.6832428 105.94372559 C79.89403946 105.95514587 79.10483612 105.96656616 78.29171753 105.97833252 C77.43498444 105.98056824 76.57825134 105.98280396 75.69555664 105.98510742 C74.33147423 106.00000214 74.33147423 106.00000214 72.93983459 106.01519775 C69.93381723 106.04439038 66.92801077 106.05803445 63.921875 106.0690918 C61.8320668 106.08059677 59.74225865 106.09211221 57.65245056 106.1036377 C53.27195248 106.12464176 48.89152767 106.13633817 44.51098633 106.14331055 C38.8971876 106.15429188 33.2843562 106.20237643 27.67086124 106.25925446 C23.35486512 106.29649155 19.03910272 106.30691738 14.72295952 106.3099823 C12.65326065 106.31603767 10.583566 106.33210297 8.51402473 106.35835266 C5.619357 106.39245454 2.7270623 106.38872278 -0.16772461 106.37573242 C-1.4497879 106.40337677 -1.4497879 106.40337677 -2.75775146 106.43157959 C-7.14717063 106.36985072 -8.82093974 106.05357634 -12.3311615 103.19520569 C-15.08083371 99.18560287 -15.0040322 95.15597761 -14.94775391 90.43212891 C-14.9565155 89.52244858 -14.9652771 88.61276825 -14.9743042 87.67552185 C-14.99624342 84.67991919 -14.98176599 81.68580221 -14.96484375 78.69018555 C-14.96821316 76.60323301 -14.97306682 74.51628238 -14.9793396 72.42933655 C-14.98670327 68.06061069 -14.9760203 63.69239673 -14.95263672 59.32373047 C-14.92413192 53.72569314 -14.94056744 48.12885347 -14.97049904 42.53085995 C-14.98857036 38.22338339 -14.98281497 33.91619064 -14.96986008 29.60870552 C-14.96652654 27.54464132 -14.97061127 25.48055129 -14.98225784 23.41651726 C-14.99496552 20.53170414 -14.97559125 17.64882898 -14.94775391 14.76416016 C-14.95787506 13.91259338 -14.96799622 13.06102661 -14.97842407 12.18365479 C-14.90602454 8.13142713 -14.58938198 6.1088092 -12.34164429 2.63543701 C-8.14764615 -0.08519215 -4.90521572 -0.04810535 0 0 Z " fill="#F4F4F4" transform="translate(382.30078125,329.337158203125)"/>
<path d="M0 0 C1.3474807 -0.0131424 1.3474807 -0.0131424 2.72218323 -0.02655029 C5.68051999 -0.0484895 8.63735216 -0.03401095 11.59570312 -0.01708984 C13.65783982 -0.02045955 15.71997458 -0.02531346 17.78210449 -0.03158569 C22.09955799 -0.03894961 26.41649353 -0.02826673 30.73388672 -0.00488281 C36.26232889 0.02360435 41.78955736 0.00719784 47.31795502 -0.02274513 C51.57486074 -0.0408309 55.8314797 -0.03505413 60.08839417 -0.02210617 C62.12651209 -0.01877571 64.16465622 -0.02284653 66.20274353 -0.03450394 C69.05383047 -0.04723351 71.90296444 -0.02780612 74.75390625 0 C76.01183739 -0.01518173 76.01183739 -0.01518173 77.29518127 -0.03067017 C81.18399087 0.03943502 84.1422434 0.38007026 87.40060425 2.61184692 C90.78386383 6.75852364 90.71387152 9.64917024 90.62158203 14.85595703 C90.62888336 15.7752449 90.63618469 16.69453278 90.64370728 17.64167786 C90.65989793 20.67544847 90.63272164 23.70707522 90.60351562 26.74072266 C90.60247813 28.8515218 90.60351466 30.96232289 90.60653687 33.07312012 C90.60635751 37.49500411 90.58551999 41.91615811 90.54931641 46.33789062 C90.50394088 52.00423564 90.5028543 57.66951421 90.5163517 63.33599091 C90.52303663 67.69408639 90.50976133 72.051939 90.49009323 76.4099884 C90.48239811 78.49915801 90.48008914 80.58835465 90.48326492 82.67753601 C90.48400721 85.59820979 90.45874318 88.51751958 90.42626953 91.43798828 C90.43122437 92.30047684 90.4361792 93.16296539 90.44128418 94.05158997 C90.36931524 98.10975305 90.18976774 100.15332904 87.96762085 103.66003418 C84.04156882 107.39129369 80.25392813 106.81443177 75.1003418 106.83984375 C74.19124557 106.84802124 73.28214935 106.85619873 72.34550476 106.86462402 C69.32865055 106.88949344 66.31184342 106.90599748 63.29492188 106.92041016 C62.26593592 106.92573383 61.23694996 106.93105751 60.17678261 106.93654251 C54.73106251 106.96328006 49.2853654 106.98265355 43.83959961 106.99707031 C38.21020444 107.01372503 32.58139393 107.05850825 26.95221996 107.10944176 C22.62766331 107.14307008 18.30324622 107.15464289 13.97857094 107.16029739 C11.90329835 107.16702144 9.82803531 107.18227328 7.75288963 107.2061882 C4.84868862 107.23774934 1.94607499 107.23789011 -0.95825195 107.23046875 C-1.81610291 107.24687408 -2.67395386 107.26327942 -3.55780029 107.28018188 C-7.63261598 107.23754042 -9.65846091 106.9466206 -13.15441895 104.69180298 C-15.86802625 100.49473066 -15.83398725 97.25071652 -15.78588867 92.34619141 C-15.79625656 91.41714996 -15.80662445 90.48810852 -15.81730652 89.53091431 C-15.84437458 86.46498231 -15.83471572 83.40048085 -15.82226562 80.33447266 C-15.82817414 78.20124919 -15.83542069 76.06802905 -15.84394836 73.93481445 C-15.85582853 69.46596997 -15.84912042 64.99762355 -15.82983398 60.52880859 C-15.80694182 54.80169791 -15.83373093 49.07607026 -15.87489605 43.34910583 C-15.9004686 38.94468092 -15.89789568 34.54061114 -15.88700294 30.13613892 C-15.8855158 28.02461399 -15.89321146 25.9130619 -15.91025352 23.80160522 C-15.93021411 20.84940565 -15.91184937 17.89983228 -15.88354492 14.94775391 C-15.89726135 14.07591461 -15.91097778 13.20407532 -15.92510986 12.30581665 C-15.84019373 7.87497935 -15.52916635 6.1454724 -12.64570618 2.60610962 C-8.66579838 -0.11455418 -4.68635571 -0.05655874 0 0 Z " fill="#F3F4F4" transform="translate(45.123046875,154.35302734375)"/>
<path d="M0 0 C6.14097069 4.20717808 6.84000242 10.57671191 8.4375 17.5 C9.03550022 19.94977158 9.63578576 22.39898636 10.23828125 24.84765625 C10.53299316 26.0608252 10.82770508 27.27399414 11.13134766 28.52392578 C12.34122575 33.36547844 13.71641626 38.15069496 15.125 42.9375 C17.32913708 50.4949549 19.30951041 58.08478005 21.1652832 65.73486328 C22.70536127 72.01667825 24.47920106 78.20627246 26.47680664 84.35839844 C27.83255488 88.70948071 28.61204557 92.46021853 28 97 C24.25261234 102.48113756 19.24324236 103.46471906 13.125 104.9375 C11.67927612 105.30862915 11.67927612 105.30862915 10.2043457 105.68725586 C8.1691436 106.2085163 6.13205309 106.72245196 4.09326172 107.22949219 C-0.88509203 108.46956199 -5.84796404 109.76843453 -10.8125 111.0625 C-12.26354126 111.43749634 -12.26354126 111.43749634 -13.74389648 111.82006836 C-19.34372192 113.27462409 -24.90009617 114.82461497 -30.4375 116.5 C-37.47524762 118.61706016 -44.5657964 120.49878887 -51.6875 122.3125 C-52.71609131 122.57933594 -53.74468262 122.84617187 -54.80444336 123.12109375 C-65.13266237 125.71316721 -65.13266237 125.71316721 -69 125 C-73.01334814 121.87913863 -74.66320442 119.19091415 -75.875 114.3125 C-76.1946875 113.08015625 -76.514375 111.8478125 -76.84375 110.578125 C-77.02164063 109.86720703 -77.19953125 109.15628906 -77.3828125 108.42382812 C-78.09064803 105.64400566 -78.83973633 102.87702798 -79.59375 100.109375 C-82.76090227 88.48147731 -85.83660032 76.83113893 -88.85961914 65.16503906 C-90.82863798 57.59240154 -92.90093423 50.0515274 -95.01953125 42.51953125 C-96.43517448 37.43787966 -97.46806749 33.33596938 -97 28 C-94.15311995 23.43081123 -91.73405513 22.19570166 -86.56640625 20.97265625 C-85.28886475 20.65876953 -84.01132324 20.34488281 -82.69506836 20.02148438 C-81.31754777 19.70181346 -79.94002493 19.38215222 -78.5625 19.0625 C-76.42957488 18.54484709 -74.2984013 18.02035756 -72.16719055 17.49569702 C-70.74982737 17.14734452 -69.33192751 16.80116836 -67.91349792 16.45718384 C-62.37661995 15.11196319 -56.90193039 13.61114246 -51.4375 12 C-41.29179958 9.03441332 -31.08006962 6.32613569 -20.86108398 3.62695312 C-19.62559814 3.30017578 -18.3901123 2.97339844 -17.1171875 2.63671875 C-16.00972168 2.34498779 -14.90225586 2.05325684 -13.76123047 1.75268555 C-3.8580137 -0.94683853 -3.8580137 -0.94683853 0 0 Z " fill="#F5F4F2" transform="translate(282,224)"/>
<path d="M0 0 C0.92889542 -0.00861557 1.85779083 -0.01723114 2.81483459 -0.02610779 C5.88603566 -0.04881426 8.95632767 -0.04201994 12.02758789 -0.03295898 C14.1622393 -0.0381927 16.29688838 -0.04446825 18.43153381 -0.05174255 C22.90628945 -0.06215559 27.38072727 -0.0575725 31.85546875 -0.04296875 C37.59028347 -0.02578495 43.32409594 -0.04926706 49.05879879 -0.08445835 C53.46747988 -0.10641838 57.87592067 -0.10499411 62.28463936 -0.09669304 C64.39895285 -0.09587266 66.51328384 -0.10275256 68.62754631 -0.11746407 C71.58435534 -0.13488258 74.53935746 -0.12038918 77.49609375 -0.09765625 C78.80620926 -0.11519455 78.80620926 -0.11519455 80.14279175 -0.13308716 C84.25218682 -0.06879831 86.33266199 0.22375412 89.85559082 2.49633789 C92.54845994 6.6751306 92.50984867 9.88079171 92.44384766 14.75830078 C92.45100296 15.67919495 92.45815826 16.60008911 92.4655304 17.54888916 C92.48241378 20.58721804 92.46301814 23.62407085 92.44165039 26.66235352 C92.44247905 28.77554954 92.44493831 30.8887455 92.44895935 33.00193787 C92.45181702 37.42792186 92.43711748 41.85339971 92.40966797 46.27929688 C92.37556475 51.95468369 92.38161082 57.62916665 92.40033054 63.3045969 C92.41089405 67.66692144 92.4019689 72.02903531 92.38694572 76.39134026 C92.38176011 78.48413403 92.3822503 80.57694978 92.38849068 82.66974068 C92.39393575 85.59297206 92.37359091 88.51490484 92.34619141 91.43798828 C92.35271729 92.30407211 92.35924316 93.17015594 92.3659668 94.06248474 C92.27236359 99.92989102 92.27236359 99.92989102 89.90440369 103.03941345 C85.72815684 106.0224295 82.01365762 105.70177452 77.03613281 105.72631836 C76.12703659 105.73449585 75.21794037 105.74267334 74.28129578 105.75109863 C71.26444157 105.77596805 68.24763444 105.79247209 65.23071289 105.80688477 C64.20172693 105.81220844 63.17274097 105.81753212 62.11257362 105.82301712 C56.66685353 105.84975467 51.22115642 105.86912816 45.77539062 105.88354492 C40.14599546 105.90019964 34.51718494 105.94498286 28.88801098 105.99591637 C24.56345433 106.02954469 20.23903724 106.0411175 15.91436195 106.046772 C13.83908937 106.05349605 11.76382633 106.06874789 9.68868065 106.09266281 C6.78447964 106.12422395 3.881866 106.12436472 0.97753906 106.11694336 C0.11968811 106.13334869 -0.73816284 106.14975403 -1.62200928 106.16665649 C-5.69667969 106.12401655 -7.72364957 105.83211621 -11.22061157 103.57926941 C-13.93600517 99.37382871 -13.8841056 96.12805713 -13.81835938 91.21679688 C-13.82551468 90.28614914 -13.83266998 89.3555014 -13.84004211 88.39665222 C-13.85692674 85.32586318 -13.83752902 82.25653435 -13.81616211 79.18579102 C-13.81699076 77.05017476 -13.81944998 74.91455856 -13.82347107 72.77894592 C-13.82632883 68.30588557 -13.81162832 63.83332601 -13.78417969 59.36035156 C-13.75007671 53.62443361 -13.7561224 47.88940998 -13.77484226 42.15344906 C-13.78540549 37.74480218 -13.77648087 33.33636377 -13.76145744 28.92773628 C-13.75627161 26.81261374 -13.75676229 24.69746947 -13.7630024 22.58234978 C-13.76844711 19.62799038 -13.74810366 16.67491612 -13.72070312 13.72070312 C-13.727229 12.84526855 -13.73375488 11.96983398 -13.74047852 11.06787109 C-13.68353967 7.46107592 -13.54420884 5.15502609 -11.7281189 1.99258423 C-7.87803234 -0.21839823 -4.36993811 -0.03257546 0 0 Z " fill="#F4F4F4" transform="translate(43.187255859375,329.466552734375)"/>
<path d="M0 0 C1.42063248 -0.0131424 1.42063248 -0.0131424 2.8699646 -0.02655029 C5.9906031 -0.04849926 9.10981665 -0.03400705 12.23046875 -0.01708984 C14.40470653 -0.02045926 16.57894248 -0.02531292 18.75317383 -0.03158569 C23.30600957 -0.03895095 27.85835423 -0.02826223 32.41113281 -0.00488281 C38.24222401 0.02360422 44.07216451 0.00719846 49.9032135 -0.02274513 C54.39173019 -0.04082715 58.8799748 -0.0350558 63.36849976 -0.02210617 C65.51826107 -0.01877469 67.66804723 -0.02285013 69.81777954 -0.03450394 C72.82449615 -0.04722707 75.82935873 -0.02781412 78.8359375 0 C79.72131195 -0.01012115 80.6066864 -0.02024231 81.51889038 -0.03067017 C85.7340477 0.04143927 88.5877656 0.33293958 91.9777832 2.96865845 C94.41796875 5.64697266 94.41796875 5.64697266 95.04296875 9.14697266 C94.33360196 13.11942667 93.24565168 14.81928973 90.41796875 17.64697266 C86.99239311 19.35976047 83.06093142 18.82199023 79.29003906 18.83984375 C78.34353485 18.84802124 77.39703064 18.85619873 76.42184448 18.86462402 C73.27993406 18.88949855 70.13806889 18.90599973 66.99609375 18.92041016 C65.38829166 18.92839567 65.38829166 18.92839567 63.74800873 18.93654251 C58.07420059 18.96328361 52.40041452 18.98265507 46.7265625 18.99707031 C40.86410757 19.01371636 35.002215 19.0584915 29.13997269 19.10944176 C24.63437246 19.14308946 20.12890606 19.1546451 15.62319183 19.16029739 C13.46222386 19.16701717 11.30126492 19.18225796 9.14041901 19.2061882 C6.11430493 19.23778735 3.08971214 19.23788404 0.06347656 19.23046875 C-0.82818207 19.24687408 -1.7198407 19.26327942 -2.63851929 19.28018188 C-6.92806325 19.23718807 -9.72519467 18.97901185 -13.1350708 16.2394104 C-16.40764343 12.77227598 -16.40764343 12.77227598 -16.33203125 9.64697266 C-16.3475 9.00759766 -16.36296875 8.36822266 -16.37890625 7.70947266 C-13.50318816 0.26643759 -6.88485077 -0.07870415 0 0 Z " fill="#F5F2ED" transform="translate(216.58203125,52.35302734375)"/>
<path d="M0 0 C0.94869461 -0.0071553 1.89738922 -0.01431061 2.87483215 -0.02168274 C6.00030149 -0.03854576 9.12433178 -0.01918207 12.24975586 0.00219727 C14.42638772 0.00136842 16.60301952 -0.00109155 18.77964783 -0.00511169 C23.33668912 -0.00796798 27.89323844 0.00671672 32.45019531 0.03417969 C38.2902342 0.06828196 44.12939465 0.06223564 49.96947575 0.04351711 C54.46222756 0.03294776 58.95477504 0.04188413 63.44750786 0.05690193 C65.60087922 0.06208328 67.75427192 0.06160253 69.90764046 0.05535698 C72.91675835 0.04990491 75.92461911 0.07027968 78.93359375 0.09765625 C79.82256348 0.09113037 80.7115332 0.08460449 81.62744141 0.07788086 C85.74749146 0.14159752 87.86960179 0.2956487 91.43138123 2.53944397 C93.78764464 5.04030909 94.33489897 6.02629773 94.71459961 9.44360352 C94.33045603 13.36186801 93.10953644 14.84403619 90.40209961 17.63110352 C86.97652397 19.34389133 83.04506228 18.80612108 79.27416992 18.82397461 C78.32766571 18.8321521 77.3811615 18.84032959 76.40597534 18.84875488 C73.26406492 18.87362941 70.12219975 18.89013059 66.98022461 18.90454102 C65.37242252 18.91252653 65.37242252 18.91252653 63.73213959 18.92067337 C58.05833145 18.94741447 52.38454538 18.96678593 46.71069336 18.98120117 C40.84823843 18.99784722 34.98634586 19.04262236 29.12410355 19.09357262 C24.61850332 19.12722032 20.11303692 19.13877596 15.60732269 19.14442825 C13.44635472 19.15114802 11.28539578 19.16638881 9.12454987 19.19031906 C6.09843579 19.22191821 3.073843 19.22201489 0.04760742 19.21459961 C-0.84405121 19.23100494 -1.73570984 19.24741028 -2.65438843 19.26431274 C-6.94393239 19.22131893 -9.74106381 18.96314271 -13.15093994 16.22354126 C-16.42351257 12.75640684 -16.42351257 12.75640684 -16.34790039 9.63110352 C-16.36336914 8.99172852 -16.37883789 8.35235352 -16.39477539 7.69360352 C-13.51441455 0.23855192 -6.89269518 -0.09086327 0 0 Z " fill="#EFF1F4" transform="translate(381.597900390625,52.368896484375)"/>
<path d="M0 0 C0.94650421 -0.00817749 1.89300842 -0.01635498 2.86819458 -0.02478027 C6.01010501 -0.0496548 9.15197017 -0.06615598 12.29394531 -0.08056641 C13.9017474 -0.08855192 13.9017474 -0.08855192 15.54203033 -0.09669876 C21.21583848 -0.12343986 26.88962454 -0.14281132 32.56347656 -0.15722656 C38.42593149 -0.17387261 44.28782406 -0.21864775 50.15006638 -0.26959801 C54.65566661 -0.30324571 59.161133 -0.31480135 63.66684723 -0.32045364 C65.8278152 -0.32717342 67.98877414 -0.34241421 70.14962006 -0.36634445 C73.17573413 -0.3979436 76.20032693 -0.39804029 79.2265625 -0.390625 C80.11822113 -0.40703033 81.00987976 -0.42343567 81.92855835 -0.44033813 C86.21810232 -0.39734432 89.01523374 -0.1391681 92.42510986 2.60043335 C95.69768249 6.06756777 95.69768249 6.06756777 95.62207031 9.19287109 C95.64527344 10.15193359 95.64527344 10.15193359 95.66894531 11.13037109 C94.36815147 14.49713162 91.92799319 16.44913831 88.87207031 18.19287109 C85.6660605 18.90154405 82.54750729 18.86712553 79.27416992 18.82397461 C78.32547531 18.83112991 77.3767807 18.83828522 76.39933777 18.84565735 C73.27386843 18.86252037 70.14983814 18.84315668 67.02441406 18.82177734 C64.8477822 18.82260619 62.6711504 18.82506616 60.49452209 18.8290863 C55.93748081 18.83194259 51.38093148 18.81725789 46.82397461 18.78979492 C40.98393572 18.75569265 35.14477527 18.76173897 29.30469418 18.7804575 C24.81194236 18.79102685 20.31939488 18.78209048 15.82666206 18.76707268 C13.6732907 18.76189133 11.519898 18.76237208 9.36652946 18.76861763 C6.35741157 18.7740697 3.34955081 18.75369493 0.34057617 18.72631836 C-0.54839355 18.73284424 -1.43736328 18.73937012 -2.35327148 18.74609375 C-6.47332153 18.68237709 -8.59543187 18.52832591 -12.1572113 16.28453064 C-14.51347472 13.78366552 -15.06072904 12.79767688 -15.44042969 9.38037109 C-15.05628611 5.4621066 -13.83536652 3.97993842 -11.12792969 1.19287109 C-7.70235405 -0.51991672 -3.77089236 0.01785352 0 0 Z " fill="#EFF2F0" transform="translate(51.1279296875,52.80712890625)"/>
<path d="M0 0 C3.62043986 2.01135548 4.76208225 3.34885667 6.1875 7.25 C5.76755425 15.64891497 -2.88459642 22.19410284 -8.5625 27.8125 C-9.30435547 28.56208984 -10.04621094 29.31167969 -10.81054688 30.08398438 C-11.53435547 30.80521484 -12.25816406 31.52644531 -13.00390625 32.26953125 C-13.65174072 32.91510986 -14.2995752 33.56068848 -14.96704102 34.22583008 C-18.38888846 37.21208747 -20.80799483 38.97954225 -25.4140625 39.05859375 C-30.01719273 37.69971761 -32.19186794 35.53171102 -35.375 32.0625 C-35.90738281 31.51142578 -36.43976563 30.96035156 -36.98828125 30.39257812 C-41.85603553 25.29568019 -41.85603553 25.29568019 -42.3125 21.1875 C-41.91645896 17.14788144 -41.01158942 15.70270845 -38 13 C-34.5625 11.9375 -34.5625 11.9375 -31 12 C-28.3125 14 -28.3125 14 -26 16 C-22.58644838 15.68270094 -20.9419918 14.29263385 -18.6171875 11.875 C-18.00746094 11.25109375 -17.39773438 10.6271875 -16.76953125 9.984375 C-16.14433594 9.32953125 -15.51914062 8.6746875 -14.875 8 C-13.6245462 6.70625147 -12.37203752 5.41448494 -11.1171875 4.125 C-10.56659668 3.55007813 -10.01600586 2.97515625 -9.44873047 2.3828125 C-6.49661539 -0.43497985 -3.96254422 -0.38848473 0 0 Z " fill="#5F9EEE" transform="translate(439,363)"/>
<path d="M0 0 C2.0625 0.56640625 2.0625 0.56640625 4.125 2.19140625 C5.52364939 5.73465138 5.69601386 7.7653231 5.0625 11.56640625 C3.78662109 13.35083008 3.78662109 13.35083008 2.0859375 15.2109375 C1.45091309 15.90815918 0.81588867 16.60538086 0.16162109 17.32373047 C-0.53108887 18.06381348 -1.22379883 18.80389648 -1.9375 19.56640625 C-2.64696777 20.33098145 -3.35643555 21.09555664 -4.08740234 21.88330078 C-6.34429753 24.28382108 -8.63588034 26.64629081 -10.9375 29.00390625 C-11.70578125 29.81794922 -12.4740625 30.63199219 -13.265625 31.47070312 C-16.70851666 34.98093025 -18.99612828 37.27319211 -23.75 38.75390625 C-28.89472252 38.45127551 -31.28538283 35.98313306 -34.9375 32.56640625 C-35.618125 31.93863281 -36.29875 31.31085938 -37 30.6640625 C-40.10770321 27.49996952 -42.38274847 24.91403564 -42.75 20.37890625 C-41.9375 16.56640625 -41.9375 16.56640625 -39.375 13.50390625 C-35.9375 11.56640625 -35.9375 11.56640625 -32.25 11.56640625 C-29.14377361 12.50413497 -27.82802085 13.00864275 -25.9375 15.56640625 C-21.95013951 13.97710455 -19.34715969 11.1693817 -16.4375 8.12890625 C-7.47106738 -1.16735428 -7.47106738 -1.16735428 0 0 Z " fill="#52BB72" transform="translate(100.9375,363.43359375)"/>
<path d="M0 0 C3.57632467 2.51103647 4.78325846 4.04272488 5.75 8.3125 C4.06517723 16.59621193 -4.98328713 23.13862129 -10.8125 28.9375 C-11.57498047 29.70384766 -12.33746094 30.47019531 -13.12304688 31.25976562 C-13.85201172 31.98744141 -14.58097656 32.71511719 -15.33203125 33.46484375 C-15.98921143 34.120896 -16.6463916 34.77694824 -17.32348633 35.45288086 C-20.2580459 38.16094901 -22.87329034 38.46374535 -26.84765625 38.40625 C-30.90343666 37.64073065 -33.24830507 34.90563591 -36 32 C-36.58394531 31.44699219 -37.16789062 30.89398438 -37.76953125 30.32421875 C-40.76152994 27.27616388 -42.38115355 25.10627004 -42.5078125 20.75 C-42 17 -42 17 -39.875 14 C-37 12 -37 12 -34 11.4375 C-30.38127515 12.11601091 -28.6526526 13.50338578 -26 16 C-23.08653407 14.68692751 -21.0549021 13.28818412 -18.8359375 10.99609375 C-18.27132812 10.42052734 -17.70671875 9.84496094 -17.125 9.25195312 C-16.5475 8.65318359 -15.97 8.05441406 -15.375 7.4375 C-14.21839849 6.24650616 -13.05964222 5.05759995 -11.8984375 3.87109375 C-11.38974121 3.34443115 -10.88104492 2.81776855 -10.35693359 2.27514648 C-7.20666597 -0.68524355 -4.15464494 -0.42250627 0 0 Z " fill="#51BB71" transform="translate(101,189)"/>
<path d="M0 0 C3.0625 2.5625 3.0625 2.5625 5 6 C4.91271751 11.98301747 2.82565936 15.08824969 -1.28515625 19.15234375 C-1.81966904 19.69734024 -2.35418182 20.24233673 -2.90489197 20.80384827 C-4.03474898 21.94649871 -5.17235229 23.08153572 -6.31713867 24.20922852 C-8.05814912 25.93319172 -9.75853482 27.69120281 -11.45898438 29.45507812 C-12.56544423 30.56476214 -13.67409971 31.67226213 -14.78515625 32.77734375 C-15.28757339 33.30222885 -15.78999054 33.82711395 -16.30763245 34.36790466 C-19.19539782 37.14658728 -21.30246111 38.33189347 -25.24121094 38.41113281 C-29.18596961 37.97965882 -30.44467858 37.55532142 -33.1875 34.8125 C-34.16976563 33.84376953 -34.16976563 33.84376953 -35.171875 32.85546875 C-35.77515625 32.24316406 -36.3784375 31.63085938 -37 31 C-37.969375 30.21625 -38.93875 29.4325 -39.9375 28.625 C-42.43053184 25.45205039 -43.09054832 23.15648866 -43.32421875 19.1640625 C-42.94137536 16.60869821 -42.35210127 15.65261999 -40.5 13.875 C-36.28006263 11.61431927 -34.54180063 11.65428129 -30 13 C-27.5625 14.5625 -27.5625 14.5625 -26 16 C-22.96030963 14.65644038 -21.03627438 13.21373854 -18.828125 10.7421875 C-18.24546875 10.11699219 -17.6628125 9.49179688 -17.0625 8.84765625 C-15.85737339 7.53604216 -14.66449308 6.21306629 -13.484375 4.87890625 C-9.03226676 0.16318634 -6.4973581 -1.02518398 0 0 Z " fill="#5D9DEE" transform="translate(440,189)"/>
<path d="M0 0 C2.69990662 1.79993774 4.5418865 3.083773 6 6 C6.49314613 9.69859599 6.34829847 11.45820238 4.3125 14.625 C0.33271502 18.05960895 -4.76609675 19.09006098 -9.74609375 20.39941406 C-12.41210752 21.10981201 -15.06427239 21.86485358 -17.71875 22.6171875 C-19.77035364 23.18403073 -21.82244109 23.74912565 -23.875 24.3125 C-24.86161621 24.59150146 -25.84823242 24.87050293 -26.86474609 25.15795898 C-32.31904905 26.61339618 -36.49743978 27.49739419 -42 26 C-44.88381579 23.41196019 -45.8491179 21.80470451 -46.5625 18 C-45.98293711 14.9089979 -45.28660419 13.21797478 -42.890625 11.14453125 C-38.98523846 8.78031998 -34.5924761 7.76086243 -30.2109375 6.59619141 C-27.62187823 5.89803739 -25.04609748 5.15816824 -22.46875 4.41796875 C-20.50031996 3.86084745 -18.5315682 3.30486161 -16.5625 2.75 C-15.61511963 2.47937744 -14.66773926 2.20875488 -13.69165039 1.92993164 C-4.72150164 -0.5425328 -4.72150164 -0.5425328 0 0 Z " fill="#FEC20D" transform="translate(271,287)"/>
<path d="M0 0 C2.4375 1.5625 2.4375 1.5625 4 4 C4.55320804 6.77744656 4.72942808 9.25391782 4 12 C1.13484179 15.40783002 -1.19997121 16.68515791 -5.47265625 17.81640625 C-6.53806641 18.10580078 -7.60347656 18.39519531 -8.70117188 18.69335938 C-9.81041016 18.98017578 -10.91964844 19.26699219 -12.0625 19.5625 C-13.14466797 19.85318359 -14.22683594 20.14386719 -15.34179688 20.44335938 C-17.50163576 21.02251233 -19.66309526 21.59565698 -21.82617188 22.16259766 C-25.80051178 23.21121195 -29.76021583 24.31002722 -33.71899414 25.41577148 C-36.68630295 26.17578111 -38.96952277 26.57723376 -42 26 C-44.875 23.9375 -44.875 23.9375 -47 21 C-47.62571566 17.1066581 -47.5116663 14.95678641 -45.6484375 11.47265625 C-41.67114251 7.75934102 -37.27984409 7.11431018 -32.0625 5.9375 C-29.97985367 5.43745064 -27.89781577 4.93486022 -25.81640625 4.4296875 C-24.81367676 4.18959961 -23.81094727 3.94951172 -22.77783203 3.70214844 C-19.28238063 2.81860843 -15.91375405 1.72038149 -12.5 0.5625 C-7.79508063 -0.9190227 -4.71646799 -1.60560612 0 0 Z " fill="#FEC10B" transform="translate(265,260)"/>
</svg>
